<svg xmlns="http://www.w3.org/2000/svg" viewBox="0 0 1691.9 595.3"><defs><style>      .cls-1 {        fill: #f18a00;      }      .cls-2 {        fill: #54565a;      }    </style></defs><g><g id="Layer_1"><g><g><path class="cls-2" d="M263.4,214.2c9.9,0,18-8.1,18-18.5s-8.1-18.5-18-18.5-18.2,8.1-18.2,18.5,8.1,18.5,18.2,18.5"></path><path class="cls-2" d="M426.7,214.2c9.9,0,18-8.1,18-18.5s-8.1-18.5-18-18.5-18.2,8.1-18.2,18.5,8.1,18.5,18.2,18.5"></path><g><path class="cls-2" d="M190.3,323.8c-7.3,7.5-16.7,11.5-27.6,11.5s-19.7-3.9-27.1-11.5c-7.1-7.6-10.6-17.2-10.6-28.7s3.5-21.1,10.6-28.7c7.3-7.5,16.2-11.5,27.1-11.5s20.2,3.9,27.6,11.5c7.6,7.6,11.4,17.2,11.4,28.7s-3.8,21.1-11.4,28.7M229.7,179.2h-30.3v69.3c-4.8-12.5-20.2-21.9-40.7-21.9s-33.1,6.5-45.5,19.8c-12.1,13-18.2,29.2-18.2,48.7s6.1,35.7,18.2,49c12.4,13.3,27.6,19.8,45.5,19.8s34.9-6.8,43.7-20.6c1.3,6.8,4.8,12.8,10.4,16.7,4.4,2.8,10,4,16.9,4.1v-184.9Z"></path><path class="cls-2" d="M279.2,231.6h-30.3v99.4c0,22.1,10.9,33.3,30.3,33.3s0-132.8,0-132.8"></path><path class="cls-2" d="M441.9,231.6h-30.4v99.4c0,22.1,9.9,33.3,29.3,33.3s.7,0,1,0v-132.8Z"></path><path class="cls-2" d="M528.4,227c-17.9,0-30.7,10.7-36.8,23.4v-18.9h-30.1v132.6h30.1v-76.7c0-18,11.9-30.5,28.8-30.5s26.8,11.2,26.8,29.2v43.8c0,22.9,9.9,34.4,29.8,34.4h0v-86.9c0-30-20.1-50.4-48.8-50.4"></path><path class="cls-2" d="M685.4,324c-7.3,7.5-16.7,11.4-27.6,11.4s-19.7-3.9-27-11.4c-7.1-7.6-10.6-17.2-10.6-28.7s3.5-21.1,10.6-28.7c7.3-7.6,16.2-11.5,27-11.5s20.2,3.9,27.6,11.5c7.6,7.5,11.4,17.2,11.4,28.7s-3.8,21.1-11.4,28.7M724.9,229.8h-30.3v19c-4.8-12.5-20.2-21.9-40.7-21.9s-33.1,6.5-45.5,19.8c-12.2,13-18.2,29.2-18.2,48.7s6,35.7,18.2,49c12.4,13.3,27.6,19.8,45.5,19.8s34.9-6.8,43.7-20.6c1.3,6.8,4.8,12,10.4,15.9,4.4,2.8,10,4,16.9,4.1v-133.8Z"></path><path class="cls-1" d="M403.7,214s-11.1-.1-14.8,0c-10.1.4-17.1,8.9-20.5,16.9-3.3,7.7-27.3,88.3-27.3,88.3h0s-.5.9-.5.9c0,0-11-25.3-14.3-33-3.4-8-12-11.8-22.1-12.1-3.7-.1-14.8,0-14.8,0l40.2,89.2h25.8l48.3-150.2Z"></path></g></g><path class="cls-2" d="M761.8,322.4c5.3,8.8,17.2,16.3,33.6,16.3s22.7-7.5,22.7-14.2c0-10.9-15.1-13.4-34.8-20.7-18.7-7-31.3-16.8-31.3-36.7s20.7-39,44.9-39,32.8,8,41.1,19.1l-16.9,18.3c-4.8-6.2-12.4-10.9-24.7-10.9s-15.4,4.7-15.4,11.6,10.6,11.1,32,19.1c23.5,8.5,34.1,19.9,34.1,38.8s-15.9,41.3-52.2,41.3-44.7-10.9-52.5-26.4l19.4-16.8Z"></path><path class="cls-2" d="M857,297c0-42,28.5-68.9,66.6-68.9s62.8,29.3,62.8,65.8c0,0,0,5.7-.5,10.9h-98.9c1,20.7,15.9,34.2,38.4,34.2s24.7-5.2,34.3-15l18.2,18.1c-16.4,17.9-34.3,23.3-53.5,23.3-39.9,0-67.4-26.4-67.4-67.4v-1ZM955.7,283c0-15.5-14.4-28.5-32-28.5s-34.6,12.7-35.8,28.5h67.9Z"></path><path class="cls-2" d="M1132.4,229.6v110.2c0,27.3-2.8,48.9-21.4,63.9-11.4,9-27.5,14.4-44.9,14.4s-44.2-6.2-61.6-18.8l14.6-22.9c12.9,8.8,26.5,14.2,43.7,14.2s21.2-2.6,28-7.7c10.6-8,12.1-21.4,12.1-33v-6.4c-5.6,10.3-20.2,19.1-41.4,19.1-35.8,0-63.6-28.6-63.6-66.4s27.8-67.2,63.6-67.2,39.1,9.5,43.4,21.6h0s1.9-22.4,27.5-20.8ZM1065.6,335.1c22,0,38.9-16.7,38.9-39.1s-16.9-39.1-38.9-39.1-37.6,17-37.6,39.1,16.1,39.1,37.6,39.1Z"></path><path class="cls-2" d="M1424.9,227.9c38.4,0,69.4,29.9,69.4,68.8s-31,68.8-69.4,68.8-69.4-29.9-69.4-68.8,30.8-68.8,69.4-68.8ZM1424.9,337.5c22.2,0,39.4-17.8,39.4-40.7s-17.2-40.7-39.4-40.7-39.4,17.8-39.4,40.7,16.9,40.7,39.4,40.7Z"></path><path class="cls-2" d="M1511.6,322.4c5.3,8.8,17.2,16.3,33.6,16.3s22.7-7.5,22.7-14.2c0-10.8-15.1-13.4-34.8-20.7-18.7-7-31.3-16.8-31.3-36.7s20.7-39,44.9-39,32.8,8,41.1,19.1l-16.9,18.3c-4.8-6.2-12.4-10.8-24.7-10.8s-15.4,4.7-15.4,11.6,10.6,11.1,32,19.1c23.5,8.5,34.1,19.9,34.1,38.7s-15.9,41.3-52.2,41.3-44.7-10.8-52.5-26.3l19.4-16.8Z"></path><path class="cls-2" d="M1266.4,322.4v-91.5h-30.3v75.6c0,18-11.6,30.5-27.8,30.5s-25.7-11.5-25.7-29.2v-76.9h-30.3v81.3c0,32.3,16.4,54,48.4,53.6,20.7-.3,32.8-9.8,38.6-20.2,1.8,6.8,5.6,10.9,9.1,13.8,5.3,4,12.1,5.1,18,5.2v-40.6c0-.5,0-1,0-1.6Z"></path><path class="cls-2" d="M1316.4,250.9v-20h-30v133.6h30v-71.3c0-21.4,13.4-34.8,34.3-34.8s.8,0,1.2,0v-29.2c-17,.7-29.7,8.9-35.5,21.7Z"></path></g></g></g></svg>