<svg id="Layer_1" data-name="Layer 1" xmlns="http://www.w3.org/2000/svg" viewBox="0 0 300 37"><defs><style>.cls-1{fill:#c12126}.cls-2{fill:#02af4c}</style></defs><path class="cls-2" d="M116.11 23.58v.53h.22c.4 0 1.34.03 1.4.86v6.43c0 1.7-.96 2.78-2.58 2.78-.85 0-2.39-.04-2.39-2.22v-7.84h1.41v-.54h-4.54v.54h1.41v7.74c0 1.76 1.21 2.91 3.8 2.91 2.42 0 3.52-1.27 3.52-3.29v-6.5c.05-.83.94-.86 1.34-.86h.3v-.54h-3.9ZM96.87 23.57v.53h.22c.4 0 1.34.03 1.4.86v6.18l-4.79-7.03-.37-.54h-2.88v.53H91.27c.19.01.38.04.55.11.28.11.5.33.52.75v8.18c0 .1-.02.21-.05.31-.1.28-.32.53-.61.63-.22.07-.58.02-.58.02l-4.09-10.85h-.6s-3.4 9.84-3.4 9.87c0 0-.25.9-.82.95-.52.02-.48-.25-.48-.34v-1.9c0-.5-.04-1.63-.56-2.15-.57-.58-1.55-.63-1.55-.65 0 0 2.51-.52 2.51-2.91 0-1.68-1.16-2.51-3.11-2.58h-5.53v.54h1.41v10.01h-1.41v.53H78v-.53h-1.41v-4.81h1.89c3.27.27-.56 5.35 3.72 5.34h2.7v-.53c-.15 0-1.14.03-1.2-.66-.04-.5.65-2.29.65-2.29h3.68s1.14 2.95 1.15 2.95H87.9v.53h6.63v-.4c-.5 0-1.7-.3-1.7-1.1v-7.2c.23.3.45.63.7.98 1.42 2.04 3.29 4.72 4.41 6.33.14.2.27.39.39.55.37.52.59.84.6.84h.2v-9.68c.06-.83.94-.86 1.34-.86h.3v-.54h-3.9Zm-18.48 5.18h-1.8v-4.64h2.23c1.37 0 1.48 1.76 1.48 2.26 0 1.2-.5 2.38-1.91 2.38Zm6.21 1.91 1.6-4.79 1.7 4.79h-3.3Z"/><path class="cls-1" d="m13.61 22.04-3.82-.99v1.25l3.82.99v-1.25zM4.72 23.29l3.82-.99v-1.25l-3.82.99v1.25zM4.72 25.81l3.82-.99v-1.25l-3.82.99v1.25zM13.61 24.56l-3.82-.99v1.25l3.82.99v-1.25zM13.61 27.07l-3.82-.99v1.25l3.82.99v-1.25zM4.72 28.32l3.82-.99v-1.25l-3.82.99v1.25z"/><path class="cls-1" d="m50.3 31.63 1.24-.47h.02c1.76-.74 2.02-1.19 1.93-2.37v-4.74c1.34 3.41 2.61 5.81 5.21 5.8.35 0 .73-.04 1.14-.14l1.01-.23-.7-.77c-.45-.49-.66-.87-.91-1.31-.1-.18-.21-.37-.34-.58-.61-.99-2.06-1.32-3.23-.8-.53-1.06-1.07-2.44-1.71-4.14l-.14-.32c-.11-.25-.22-.51-.34-.77v-.04h-.02c-.4-.9-.83-1.8-1.34-2.64-.46-.77-.93-1.43-1.44-2.02-1.36-1.59-3.15-2.58-5.34-2.95-1.51-.25-2.58-.3-3.94-.37-.28-.01-.57-.03-.89-.04-.61-.03-1.88-.14-3.11-.24-.83-.07-1.68-.14-2.34-.19.05-.19.07-.38.07-.58 0-.27-.02-.51-.07-.73h8.7c2.24 0 3.86-.99 4.83-2.94 2.23-.02 3.84-1.03 4.79-3h.31c2.32 0 3.98-1.06 4.93-3.15l.39-.86H29.55c-1.93 0-3.59 1.26-4.2 3.22l-.02.07c-.5-1.4-1.42-2.58-2.59-3.28-1.63-.97-3.49-1.3-4.97-.87-.49.14-.98.36-1.37.62-.34.23-.82.59-1.16 1.03-.38.48-.74 1.07-1.01 1.62-.17.14-.3.28-.39.42l-.35.66-.02.04c-.42.95-.94 1.61-1.33 2.08-.4.46-.42.9-.36 1.19.06.31.23.57.41.76v.02c-.13.2-.19.43-.19.67 0 .78.68 1.37 1.51 1.37.61 0 1.1-.28 1.62-.63.21-.14.77-.51.96-.53.23 0 .45.21.45.44 0 .64-.82.98-1.41 1.02l-1.2.13c-.86.08-1.27.54-1.27.94s.2.64.33.78l.09.09.3.27-1.27 2.04c-.9-.84-1.96-1.34-2.9-1.38-.61-.02-1.13.16-1.52.53-.11.11-.21.23-.29.36h-.02c-1 0-1.81.54-2.21 1.14-.43.66-.28 1.8.27 2.67l-3.2.83v15.31h58.75v-3.05h-10.7Zm7.57-4.16c.12.19.22.36.31.54.12.21.23.42.37.63-.92-.06-1.62-.57-2.27-1.53.6-.21 1.32-.06 1.58.37ZM45.16 14.35c1.89.31 3.45 1.17 4.61 2.53.25.29.49.61.73.94-3.19-.42-4.3-.88-6.08-3.59.24.03.48.07.74.11Zm-1.38-4.56H37.8c.51-.45.94-1.03 1.29-1.72h8.13c-.76 1.17-1.87 1.72-3.43 1.72Zm4.76-2.94h-5.98c.53-.46.97-1.06 1.32-1.79h8.14c-.76 1.22-1.88 1.79-3.48 1.79Zm.41-4.58h8.1c-.76 1.07-1.84 1.57-3.33 1.57h-5.98c.48-.42.88-.94 1.22-1.57Zm-32.74.31c.19-.25.5-.52.87-.76.29-.19.67-.36 1.04-.47.59-.17 1.27-.18 1.96-.05l-2.15 1.33a7.03 7.03 0 0 0-.78-.04c-.36 0-.7.03-1.01.08a.27.27 0 0 1 .07-.08Zm-2.51 9.49c.02-.09.09-.15.16-.15l1.05.03c1.28-.04 2.58-.57 2.72-1.9 0-.9-.64-1.78-1.54-1.78-.48 0-1.03.33-1.63.74-.4.26-.71.47-.95.47-.16 0-.29-.11-.29-.2v-.05l.67-.89-.58-.39c-.12-.08-.32-.23-.34-.34 0-.05.07-.15.09-.18.24-.28.51-.62.79-1.04.17-.24.27-.37.56-.37s.52.23.52.5c0 .18.2.33.45.33s.36-.18.52-.33c0 0 .6-.55.28-.81-.36-.29-1.8.31-1.4-1.02l.1-.19c.15-.21.85-.72 2.27-.72.27 0 .55.02.85.06l.21.03L21.24 2c.03.06.03.11.03.11v.02c.16.92-.42 2.01-1.34 2.54l-.37.21.24 1.37c-.78.24-1.32.86-1.32 1.61 0 .26.06.57.14.95.09.43.18.92.21 1.41 0 1.42-1.96 2.36-3.62 2.31h-.04c-.07 0-1.13-.09-1.39-.29-.05-.04-.09-.12-.08-.18Zm-7.51 4.46c.24-.37.79-.68 1.47-.56l.52.09.16-.5c.04-.13.1-.23.18-.31.15-.14.36-.2.64-.2.73.03 1.65.54 2.39 1.34.27.29.51.63.73.97.04.07.09.15.13.22.06.09.11.17.12.19.03.05.4.6.37.64.25-.35.5-.71.76-1.06 0 0 0-.04-.02-.09-.06-.12-.19-.33-.27-.46l-.06-.09c0-.01-.04-.06-.09-.13-.08-.13-.2-.32-.26-.43l1.59-2.54c.4.08.73.09.89.09h.04c2.24 0 4.55-1.29 4.55-3.45v-.05c-.03-.59-.14-1.15-.23-1.6-.06-.3-.11-.58-.11-.72 0-.24.33-.5.81-.5h.72l-.33-1.87c1.02-.75 1.65-1.97 1.61-3.14 1.1.84 1.87 2.3 2.01 3.85.04.45-.05 1.08-.2 1.74l-.08.28h.01c-.26 1.09-.64 2.2-.84 2.73l-.19.49.46.26c.82.46 1.32.8 1.32 1.88 0 1.23-1.11 2.18-2.18 2.38l-1.47.27 1.24.83c.4.27.63.7.63 1.16 0 .77-.66 1.4-1.47 1.4h-.47l-.13.43c-.45 1.48-.95 2.21-2.54 2.36.07-.45.12-.88.12-1.5 0-.14-.01-.55-.02-.68l-.07-1.38-.97.99c-.33.34-.91.6-1.56.73v-1.21l-6.95-1.81-2.47.64c-.55-.55-.66-1.46-.53-1.67ZM4.2 31.63l5-1.3 5 1.3h-10Zm10.73-1.06L9.2 29.08l-5.73 1.49V20.31l5.73-1.49 5.73 1.49v10.26Zm2.67-2c-.52.74-.58 1.77-.19 3.06h-1.26v-9.82c.45-.07.94-.2 1.39-.4-.02.43-.08.77-.16 1.22-.02.1-.04.22-.06.33l-.12.71h.72c1.08 0 1.88-.17 2.5-.49v4.1c0 .1-.08.19-.18.19h-.18c-1.07 0-1.96.4-2.45 1.1Zm13.21.26c-.44.51-.87 1.38-.59 2.8h-7.45c.8-.08 1.38-.27 1.78-.68.49-.51.53-1.2.51-1.69.02-.04.1-.21.46-.38l.64-.29-.38-.59c-.64-.98-.36-3.12-.11-4.27h.06c2.52 0 4.16-.53 5.88-1.08.45-.14.91-.29 1.4-.43h.02s.52-.17 1.2-.33l2.43 4 .02.03c.24.34.27.57-.17 1.09l-1.22 1.31-1.99-.37h-.02c-.9-.14-1.87.21-2.47.9Zm.65 2.8c-.22-.86-.13-1.55.26-2 .38-.43.95-.56 1.36-.5l2.31.43h.38l1.63-1.76.02-.02c.28-.32 1.13-1.31.26-2.57l-2.18-3.6c.36-.05.72-.08 1.06-.08h.01s1.11-.02 2.28.67c.16.34.38.79.63 1.29.46.93 1.03 2.09 1.19 2.55.05.15.2.59-.34 1.16l-4.19 4.42h-4.68Zm14.27 0h-7.91l3.39-3.58c.68-.71.9-1.56.62-2.39-.17-.48-.61-1.4-1.08-2.35 1.35.63 3.39 1.19 7.54 1.52.5.04.63.21.73.67l.18 1.79-2.17.49c-.73.14-1.3.62-1.57 1.31-.3.76-.2 1.66.27 2.54Zm.86-2.1c.12-.31.35-.5.67-.56l3.25-.72-.3-2.9v-.06c-.09-.38-.33-1.53-1.84-1.66-5.81-.47-7.15-1.33-8.56-2.24v-.01l-.09-.06c-1.51-.97-3.01-.98-3.15-.98-1.64 0-3.73.65-3.89.71-.5.15-.97.3-1.43.44-1.82.59-3.39 1.09-6.03 1.01h-.48l-.12.45c-.1.36-.83 3.28-.12 5.15-.64.5-.64 1.08-.63 1.16.03.64-.13.8-.18.85-.31.32-1.32.36-2.17.36h-.32l-.18.25c-.52.72-1.66.89-2.39.71-.32-.97-.33-1.71-.02-2.16.37-.52 1.14-.58 1.45-.58h.18c.77 0 1.4-.63 1.4-1.41v-5.22c.23-.36.42-.78.59-1.25 1.27-.2 2.25-1.28 2.25-2.58 0-.5-.15-.98-.41-1.39 1.18-.57 2.18-1.72 2.18-3.24s-.76-2.21-1.49-2.67c.21-.58.54-1.61.77-2.64l1.02-3.65c.46-1.43 1.65-2.36 3.04-2.36h17.96c-.76 1.07-1.84 1.57-3.34 1.57H33.35l-.57 1.22h9.74c-.77 1.22-1.89 1.79-3.48 1.79h-7.06l-.57 1.22h6.3c-.76 1.17-1.87 1.72-3.43 1.72h-3.85l-.57 1.22h4.03s.14.23.14.73c0 .78-.66 1.42-1.46 1.42-.28 0-.51-.06-.93-.23-.18-.08-.36-.15-.54-.23l-.93.84c.17.08.35.15.52.22.81.35 1.26.54 1.88.54.74 0 1.41-.31 1.89-.8.69.04 1.81.14 2.89.23 1.29.11 2.51.21 3.14.24.32.02.61.03.89.05.53.03 1.02.05 1.52.09 2.45 3.98 3.71 4.5 8.45 5.07.34.61.65 1.26.94 1.91v7.79c.03.36.03.48-.02.54-.17.22-.9.52-1.15.63l-4 1.51c-.53-.72-.72-1.47-.51-2.01Z"/><path class="cls-1" d="m13.66 21.89-3.83-1v1.26l3.83.99v-1.25zM4.73 23.14l3.83-.99v-1.26l-3.83 1v1.25zM4.73 25.67l3.83-1v-1.26l-3.83 1v1.26zM13.66 24.41l-3.83-1v1.26l3.83 1v-1.26zM13.66 26.93l-3.83-.99v1.25l3.83 1v-1.26zM4.73 28.19l3.83-1v-1.25l-3.83.99v1.26zM85.28 9.51V2.05c4.69 0 6.4-.23 7.22 5.5h.49V1.17H80.26v.88h2.2v16.41h-2.43v.86h13.12v-6.71h-.66c-.65 5.07-1.94 5.84-5.55 5.84h-1.67v-7.97h.97c1.62.04 2.54.98 2.87 3.77h.59V6.01h-.59c0 .04-.12 3.55-2.94 3.5h-.9ZM80.08 9.83H72.9v.81h2.46v5.9c-.41 1.5-2.62 2.12-3.28 2.12-4.59 0-4.26-6.71-4.26-8.51 0-1.64-.16-8.51 4.26-8.51 3.12 0 4.76 3.1 5.41 5.89h.5c0-1.15.02-6.62 0-6.6.01-.04-2.14 1.54-2.15 1.52.05 0-.98-1.47-3.77-1.47-5.41 0-7.4 5.4-7.38 9.17.02 3.45 1.62 9.33 7.38 9.33 1.81 0 3.09-.92 3.77-1.97 0-.02 2.29 1.8 2.29 1.81v-8.68h1.94v-.81ZM164.01 12.62c-.65 5.07-1.94 5.83-5.55 5.83h-.22V2.04h2.29v-.88h-7.54v.88h2.3v16.41h-1.82L146.77.67h-.99s-5.57 16.14-5.58 16.18c.01-.05-.41 1.5-1.34 1.57-.85.04-.78-.4-.78-.56v-3.11c0-.82-.06-2.67-.91-3.52-.95-.96-2.57-1.03-2.54-1.06 0 0 4.12-.85 4.12-4.77 0-2.75-1.91-4.11-5.1-4.23h-9.06v.88h2.32v16.41h-2.32v.87h7.43v-.87h-2.32v-7.89h3.09c5.36.44-.92 8.77 6.11 8.76h4.43v-.87c-.25 0-1.87.05-1.97-1.08-.07-.82 1.07-3.75 1.07-3.75h6.03s1.88 4.84 1.89 4.84h-2.1v.87h16.43v-6.71h-.66Zm-31.35-2.98h-2.95v-7.6h3.77c2.21.33 2.3 2.89 2.3 3.7 0 1.97-.82 3.9-3.12 3.9Zm10.17 3.14 2.62-7.85 2.79 7.85h-5.41ZM115.66 2.04c4.68 0 6.4-.22 7.22 5.51h.49V1.17h-18.56v.87h.49c.66 0 2.21.05 2.3 1.42v10.47L98.92 1.17h-4.73v.87h.79c.93 0 2.24.04 2.3 1.42v13.41c0 1.31-1.96 1.81-2.78 1.81v.65h6.4v-.65c-.82 0-2.79-.5-2.79-1.81l.02-11.81c3.44 4.91 9.93 14.28 9.99 14.27h.32V3.46c.09-1.37 1.65-1.42 2.3-1.42h2.13v16.42h-2.43v.86h13.12v-6.71h-.66c-.65 5.07-1.94 5.84-5.55 5.84h-1.67v-7.97h.97c1.62.04 2.54.98 2.87 3.77h.6V6.01h-.59c0 .04-.12 3.55-2.95 3.5h-.9V2.04ZM172.92 2.04v-.88h-7.4v.88h2.32l.01 16.41h-2.33v.88h7.4v-.88h-2.32V2.04h2.32z"/><path class="cls-2" d="M164.92 24.12h1.48v10.02h-1.48v.53h8v-4.09h-.4c-.4 3.09-1.18 3.56-3.38 3.56h-1.02v-4.86h.59c.99.02 1.55.6 1.75 2.3h.36v-5.03h-.36c0 .03-.07 2.16-1.8 2.13h-.55v-4.55c2.85 0 3.91-.14 4.4 3.36h.3V23.6h-7.9v.53ZM125.1 34.66h6.96v-4.09h-.4c-.4 3.09-1.18 3.56-3.38 3.56h-.13V24.12h1.34v-.54h-4.39v.54h1.34v10.01h-1.33v.53ZM124.69 24.12v-.54h-4.28v.54h1.28l.01 10h-1.29v.54h4.28v-.54h-1.28v-10h1.28zM136.76 24.12v-.54h-4.28v.54h1.28l.01 10h-1.29v.54h4.28v-.54h-1.28v-10h1.28zM137.16 34.66v-.54h1.41V24.11h-1.41v-.54h4.35c1.63 0 2.93.51 3.86 1.52.93 1 1.4 2.37 1.4 4.07 0 1.58-.43 2.88-1.27 3.87-.94 1.08-2.29 1.63-4 1.63h-4.35Zm4.37-.54c1.37 0 2.27-.43 2.74-1.4.33-.67.49-1.84.49-3.48 0-1.96-.24-3.32-.71-4.07-.46-.73-1.31-1.05-2.52-1.05h-1.24v10.01h1.24ZM65.1 23.57v4.09h.4c.4-3.09.45-3.56 2.65-3.56h.13v10.02h-1.41v.53h4.54v-.53H70V24.1h.13c2.2 0 2.25.46 2.65 3.56h.4v-4.09H65.1ZM109.02 34.87c-.01.36-.13.66-.34.91-.21.24-.44.36-.71.36-.36 0-.72-.22-1.05-.65-.33-.42-.54-.69-.63-.79s-.06-.06-.09-.09c.87-.25 1.64-.81 2.31-1.69.85-1.11 1.28-2.41 1.28-3.85 0-1.53-.46-2.87-1.37-3.98-.91-1.12-2.01-1.69-3.27-1.69s-2.41.57-3.34 1.68c-.92 1.11-1.39 2.46-1.39 4.01 0 1.31.37 2.53 1.11 3.63.54.8 1.17 1.37 1.89 1.71-.44.22-.68.61-.74 1.15v.1h.5v-.09c.03-.24.13-.43.32-.58a.95.95 0 0 1 .63-.22c.34 0 .61.16.82.48l.57.85c.4.59.99.89 1.77.89.63 0 1.16-.2 1.58-.61.41-.4.64-.91.66-1.51v-.1H109v.09Zm-6.53-6.15c0-1.59.12-2.63.34-3.25.38-1.03 1.12-1.52 2.27-1.52s1.9.56 2.29 1.7c.23.67.34 1.63.34 3.03 0 1.83-.08 2.99-.24 3.59-.36 1.31-1.14 1.95-2.4 1.95s-2.01-.64-2.36-1.95c-.17-.6-.25-1.74-.25-3.54ZM163.35 25.09c-.93-1.01-2.23-1.52-3.86-1.52h-4.35v.54h1.41v10.01h-1.17l-4.09-10.85h-.6s-3.22 9.52-3.32 9.79c-.2.57-.75 1.08-1.52 1.06v.52h3.34v-.52c-.15 0-1.14.01-1.2-.68-.04-.5.65-2.29.65-2.29h3.68s1.14 2.95 1.15 2.95h-1.28v.53h7.3c1.71 0 3.06-.55 4-1.63.84-.98 1.27-2.28 1.27-3.87 0-1.69-.47-3.06-1.4-4.07Zm-14.45 5.58 1.6-4.79 1.7 4.79h-3.3Zm13.35 2.05c-.48.97-1.37 1.4-2.74 1.4h-1.24V24.11h1.24c1.21 0 2.06.33 2.52 1.05.47.74.71 2.11.71 4.07 0 1.65-.17 2.82-.49 3.48Z"/></svg>
